<svg width="24" height="24" viewBox="0 0 24 24" fill="none" xmlns="http://www.w3.org/2000/svg">
<path fill-rule="evenodd" clip-rule="evenodd" d="M14.5078 9.26004C13.0504 7.92412 10.7852 7.96197 9.37357 9.3736C7.93208 10.8151 7.9231 13.1466 9.34661 14.5992L10.3401 13.5714C9.49137 12.6758 9.50591 11.2616 10.3837 10.3838C11.2431 9.52438 12.6166 9.49239 13.5143 10.2878L14.5078 9.26004ZM12.4804 14.2349C12.8967 14.1458 13.2928 13.9396 13.6162 13.6162C13.9592 13.2732 14.1704 12.8484 14.2498 12.4045L15.5844 11.0239C15.9216 12.2668 15.6022 13.6505 14.6264 14.6264C13.6824 15.5704 12.3566 15.9001 11.146 15.6153L12.4804 14.2349Z" fill="black"/>
<path fill-rule="evenodd" clip-rule="evenodd" d="M17.3914 6.27699C15.7834 5.06142 13.9197 4.25 12 4.25C10.0366 4.25 8.13185 5.09876 6.49925 6.36043C4.86255 7.62528 3.44982 9.34151 2.45827 11.1753L2.45793 11.1759C2.18101 11.6892 2.18101 12.3098 2.45793 12.8231L2.45822 12.8237C3.43921 14.6384 4.83244 16.3378 6.44697 17.5988L7.49608 16.5135C7.46952 16.4934 7.443 16.473 7.41651 16.4526C5.95907 15.3261 4.67838 13.7763 3.77794 12.1107C3.74101 12.042 3.74101 11.9569 3.77796 11.8883C4.67839 10.2232 5.95906 8.67362 7.41648 7.54732C8.87814 6.41774 10.4684 5.75 12 5.75C13.447 5.75 14.9464 6.34601 16.3401 7.3645L17.3914 6.27699ZM18.8952 7.59897L17.8523 8.67777C18.7812 9.62246 19.5942 10.7278 20.2221 11.8895C20.2589 11.9579 20.2589 12.0428 20.2223 12.1113C19.3218 13.7765 18.0411 15.3263 16.5835 16.4527C15.1218 17.5823 13.5316 18.25 12 18.25C11.0886 18.25 10.1564 18.0136 9.24295 17.584L8.1509 18.7137C9.36246 19.3592 10.6677 19.75 12 19.75C13.9634 19.75 15.8681 18.9012 17.5007 17.6396C19.1374 16.3747 20.5502 14.6585 21.5417 12.8247L21.5421 12.8241C21.819 12.3108 21.819 11.6902 21.5421 11.1769L21.5418 11.1763C20.8448 9.88707 19.9398 8.65598 18.8952 7.59897ZM3.77796 11.8883C3.77799 11.8882 3.77802 11.8882 3.77806 11.8881L3.11801 11.532L3.77772 11.8887C3.7778 11.8886 3.77788 11.8884 3.77796 11.8883Z" fill="black"/>
<path d="M19 5L5 19" stroke="black" stroke-width="2" stroke-linecap="round"/>
</svg>
